# xmcd
#
# Track frame offsets:
#	150
#	13109
#	32984
#	56036
#	70758
#	89861
#
# Disc length: 1436 seconds
#
# Revision: 0
# Processed by: cddbd v1.5.2PL0 Copyright (c) Steve Scherf et al.
# Submitted via: audiograbber 1.83.01
#
DISCID=53059a06
DTITLE=Bill Booth - Bill Booth
DYEAR=2006
DGENRE=Country
TTITLE0=Bill Booth
TTITLE1=Off To America
TTITLE2=Burning Drums
TTITLE3=Cold Blue Night
TTITLE4=The Ancient Ones
TTITLE5=Anna Rebecca
EXTD=
EXTT0=
EXTT1=
EXTT2=
EXTT3=
EXTT4=
EXTT5=
PLAYORDER=
